<svg width="24" height="24" viewBox="0 0 24 24" fill="none" xmlns="http://www.w3.org/2000/svg">
<path d="M12 2.75C15.866 2.75 19 5.88401 19 9.75V17.75H5V9.75C5 5.88401 8.13401 2.75 12 2.75Z" stroke="#73707C" stroke-width="2"/>
<path d="M14.6666 19.75C14.6666 20.0783 14.5977 20.4034 14.4637 20.7067C14.3296 21.01 14.1332 21.2856 13.8856 21.5178C13.638 21.7499 13.344 21.9341 13.0205 22.0597C12.6969 22.1853 12.3502 22.25 12 22.25C11.6498 22.25 11.303 22.1853 10.9795 22.0597C10.656 21.9341 10.362 21.7499 10.1144 21.5178C9.86674 21.2856 9.67031 21.01 9.5363 20.7067C9.40229 20.4034 9.33331 20.0783 9.33331 19.75L14.6666 19.75Z" fill="#73707C"/>
</svg>
