<svg width="24" height="24" viewBox="0 0 24 24" fill="none" xmlns="http://www.w3.org/2000/svg">
<circle cx="12" cy="12" r="2" stroke="#73707C" stroke-width="2"/>
<mask id="path-2-inside-1_339_4827" fill="white">
<path fill-rule="evenodd" clip-rule="evenodd" d="M5.63861 6C7.29547 6 8.63861 4.65685 8.63861 3C8.63861 2.81999 8.62276 2.64369 8.59237 2.47241C9.55279 2.16561 10.5763 2 11.6385 2C12.7008 2 13.7244 2.16564 14.6849 2.47249C14.6545 2.64375 14.6386 2.82002 14.6386 3C14.6386 4.65685 15.9818 6 17.6386 6C18.2357 6 18.792 5.8256 19.2594 5.52496C20.1867 6.61539 20.8843 7.90739 21.277 9.32603C20.3044 9.8222 19.6385 10.8333 19.6385 12C19.6385 13.1667 20.3044 14.1778 21.277 14.674C20.8843 16.0926 20.1867 17.3846 19.2594 18.475C18.792 18.1744 18.2357 18 17.6386 18C15.9818 18 14.6386 19.3431 14.6386 21C14.6386 21.18 14.6545 21.3563 14.6849 21.5275C13.7244 21.8344 12.7008 22 11.6385 22C10.5763 22 9.55279 21.8344 8.59238 21.5276C8.62277 21.3563 8.63863 21.18 8.63863 21C8.63863 19.3431 7.29548 18 5.63863 18C5.04151 18 4.48514 18.1745 4.0177 18.4752C3.09027 17.3847 2.39273 16.0927 2 14.674C2.97259 14.1779 3.63861 13.1667 3.63861 12C3.63861 10.8333 2.97259 9.82211 2 9.32597C2.39273 7.9073 3.09027 6.61528 4.01769 5.52484C4.48513 5.82555 5.0415 6 5.63861 6Z"/>
</mask>
<path d="M8.59237 2.47241L7.98378 0.567252L6.31757 1.09951L6.62312 2.82177L8.59237 2.47241ZM14.6849 2.47249L16.6541 2.8218L16.9596 1.09964L15.2935 0.567357L14.6849 2.47249ZM19.2594 5.52496L20.7829 4.22924L19.6492 2.89622L18.1774 3.84288L19.2594 5.52496ZM21.277 9.32603L22.1859 11.1076L23.64 10.3657L23.2045 8.79245L21.277 9.32603ZM21.277 14.674L23.2045 15.2075L23.64 13.6343L22.1859 12.8924L21.277 14.674ZM19.2594 18.475L18.1774 20.1571L19.6492 21.1038L20.7829 19.7708L19.2594 18.475ZM14.6849 21.5275L15.2935 23.4326L16.9596 22.9004L16.6541 21.1782L14.6849 21.5275ZM8.59238 21.5276L6.62313 21.1782L6.31758 22.9005L7.98379 23.4328L8.59238 21.5276ZM4.0177 18.4752L2.4942 19.7709L3.628 21.104L5.09977 20.1572L4.0177 18.4752ZM2 14.674L1.09116 12.8925L-0.363049 13.6343L0.0724928 15.2076L2 14.674ZM2 9.32597L0.0724939 8.79238L-0.363048 10.3657L1.09116 11.1075L2 9.32597ZM4.01769 5.52484L5.09976 3.84284L3.62799 2.89602L2.49419 4.2291L4.01769 5.52484ZM6.63861 3C6.63861 3.55228 6.1909 4 5.63861 4V8C8.40004 8 10.6386 5.76142 10.6386 3H6.63861ZM6.62312 2.82177C6.63314 2.87824 6.63861 2.93765 6.63861 3H10.6386C10.6386 2.70234 10.6124 2.40913 10.5616 2.12304L6.62312 2.82177ZM11.6385 0C10.3673 0 9.1386 0.198349 7.98378 0.567252L9.20097 4.37756C9.96697 4.13286 10.7853 4 11.6385 4V0ZM15.2935 0.567357C14.1386 0.198386 12.9098 0 11.6385 0V4C12.4918 4 13.3101 4.13289 14.0762 4.37763L15.2935 0.567357ZM16.6386 3C16.6386 2.93766 16.6441 2.87826 16.6541 2.8218L12.7156 2.12318C12.6649 2.40924 12.6386 2.70239 12.6386 3H16.6386ZM17.6386 4C17.0863 4 16.6386 3.55228 16.6386 3H12.6386C12.6386 5.76142 14.8772 8 17.6386 8V4ZM18.1774 3.84288C18.023 3.94219 17.8406 4 17.6386 4V8C18.6307 8 19.5609 7.70901 20.3413 7.20704L18.1774 3.84288ZM23.2045 8.79245C22.7324 7.08722 21.8946 5.53637 20.7829 4.22924L17.7358 6.82068C18.4789 7.69442 19.0361 8.72756 19.3495 9.85961L23.2045 8.79245ZM21.6385 12C21.6385 11.614 21.8568 11.2755 22.1859 11.1076L20.3681 7.54449C18.7521 8.36891 17.6385 10.0527 17.6385 12H21.6385ZM22.1859 12.8924C21.8568 12.7245 21.6385 12.386 21.6385 12H17.6385C17.6385 13.9473 18.7521 15.6311 20.3681 16.4555L22.1859 12.8924ZM20.7829 19.7708C21.8946 18.4636 22.7324 16.9128 23.2045 15.2075L19.3495 14.1404C19.0361 15.2724 18.4789 16.3056 17.7358 17.1793L20.7829 19.7708ZM17.6386 20C17.8406 20 18.023 20.0578 18.1774 20.1571L20.3413 16.793C19.5609 16.291 18.6307 16 17.6386 16V20ZM16.6386 21C16.6386 20.4477 17.0863 20 17.6386 20V16C14.8772 16 12.6386 18.2386 12.6386 21H16.6386ZM16.6541 21.1782C16.6441 21.1217 16.6386 21.0623 16.6386 21H12.6386C12.6386 21.2976 12.6649 21.5908 12.7156 21.8768L16.6541 21.1782ZM11.6385 24C12.9098 24 14.1386 23.8016 15.2935 23.4326L14.0762 19.6224C13.3101 19.8671 12.4918 20 11.6385 20V24ZM7.98379 23.4328C9.13861 23.8017 10.3673 24 11.6385 24V20C10.7853 20 9.96698 19.8671 9.20097 19.6224L7.98379 23.4328ZM6.63863 21C6.63863 21.0623 6.63316 21.1217 6.62313 21.1782L10.5616 21.877C10.6124 21.5909 10.6386 21.2977 10.6386 21H6.63863ZM5.63863 20C6.19091 20 6.63863 20.4477 6.63863 21H10.6386C10.6386 18.2386 8.40005 16 5.63863 16V20ZM5.09977 20.1572C5.25419 20.0578 5.43661 20 5.63863 20V16C4.64641 16 3.71609 16.2911 2.93563 16.7932L5.09977 20.1572ZM0.0724928 15.2076C0.544559 16.9129 1.38247 18.4638 2.4942 19.7709L5.5412 17.1794C4.79807 16.3057 4.2409 15.2725 3.92751 14.1404L0.0724928 15.2076ZM1.63861 12C1.63861 12.386 1.42031 12.7245 1.09116 12.8925L2.90884 16.4556C4.52487 15.6312 5.63861 13.9474 5.63861 12H1.63861ZM1.09116 11.1075C1.42031 11.2754 1.63861 11.614 1.63861 12H5.63861C5.63861 10.0526 4.52487 8.36878 2.90884 7.54439L1.09116 11.1075ZM2.49419 4.2291C1.38246 5.53624 0.544559 7.08711 0.0724939 8.79238L3.92751 9.85955C4.2409 8.72749 4.79807 7.69433 5.54119 6.82058L2.49419 4.2291ZM5.63861 4C5.43659 4 5.25417 3.94217 5.09976 3.84284L2.93563 7.20684C3.71609 7.70893 4.64641 8 5.63861 8V4Z" fill="#73707C" mask="url(#path-2-inside-1_339_4827)"/>
</svg>
